<?xml version="1.0" standalone="no"?>
<!DOCTYPE svg PUBLIC "-//W3C//DTD SVG 20010904//EN"
 "http://www.w3.org/TR/2001/REC-SVG-20010904/DTD/svg10.dtd">
<svg version="1.0" xmlns="http://www.w3.org/2000/svg"
 width="1920.000000pt" height="1080.000000pt" viewBox="0 0 1920.000000 1080.000000"
 preserveAspectRatio="xMidYMid meet">
<metadata>
Created by potrace 1.16, written by Peter Selinger 2001-2019
</metadata>
<g transform="translate(0.000000,1080.000000) scale(0.100000,-0.100000)"
fill="#000000" stroke="none">
<path d="M4051 10629 c-272 -29 -574 -125 -813 -259 -563 -317 -983 -842
-1209 -1515 l-47 -140 -241 -3 -241 -2 0 -380 c0 -209 -4 -380 -8 -380 -24 0
-158 109 -242 196 -198 207 -346 487 -454 861 l-32 112 -356 413 c-195 227
-367 427 -382 443 l-27 30 6 -110 c19 -352 93 -649 235 -942 200 -415 491
-724 865 -919 110 -58 335 -143 378 -144 14 0 17 -9 16 -62 -1 -35 -4 -52 -6
-38 -5 29 -23 52 -23 29 0 -8 7 -41 15 -72 10 -39 15 -107 15 -207 l0 -150
180 0 180 0 0 -130 0 -130 -180 0 -180 0 0 -660 0 -660 180 0 180 0 0 -125 0
-125 -180 0 -180 0 0 -503 0 -502 -172 -18 c-777 -81 -1197 -205 -1115 -331
80 -121 726 -243 1617 -305 608 -43 1698 -65 2133 -44 l136 6 17 71 c36 153
116 287 240 406 311 297 812 383 1228 210 214 -89 394 -269 466 -468 l22 -59
110 23 c150 32 292 77 356 114 154 90 51 179 -304 264 -88 21 -404 76 -436 76
-5 0 -8 239 -8 530 l0 530 -180 0 -180 0 0 125 0 125 180 0 180 0 0 524 0 524
98 7 c127 10 391 0 528 -20 292 -42 522 -125 718 -258 74 -50 205 -174 261
-247 136 -177 225 -409 259 -673 l13 -100 -82 -111 c-409 -554 -704 -1130
-796 -1557 -19 -84 -23 -136 -24 -269 0 -186 15 -257 81 -379 19 -35 34 -64
32 -66 -2 -1 -37 -10 -78 -20 -41 -10 -99 -26 -129 -37 -30 -10 -59 -18 -66
-18 -6 0 -32 28 -57 63 -107 144 -284 290 -458 377 l-95 47 -58 -46 c-136
-112 -395 -201 -765 -266 -294 -50 -513 -55 -678 -15 l-79 20 -55 -60 c-109
-117 -201 -291 -252 -477 -18 -66 -22 -107 -24 -267 l-1 -189 -108 -43 c-60
-24 -109 -43 -110 -41 -1 1 -9 23 -19 50 -44 118 -133 200 -261 240 -58 18
-93 22 -210 22 -146 0 -215 -9 -215 -27 0 -6 7 -7 18 -3 33 14 280 18 344 5
162 -31 278 -130 318 -270 9 -30 8 -31 -63 -67 -182 -91 -327 -219 -327 -289
0 -44 78 -83 166 -84 l30 0 -28 -82 c-31 -94 -38 -206 -14 -261 14 -35 75 -93
110 -106 48 -18 66 -22 66 -13 0 5 -19 15 -42 23 -103 34 -153 136 -129 260
12 61 45 157 60 171 3 4 60 17 126 28 66 11 187 43 272 71 85 29 155 50 157
48 1 -2 27 -40 57 -84 104 -155 312 -336 477 -415 l52 -25 0 -111 0 -111 -37
-7 c-21 -3 -86 -6 -144 -6 -130 0 -438 -15 -739 -36 -934 -64 -1517 -191
-1475 -323 28 -90 385 -183 945 -245 1291 -145 3297 -119 4327 54 340 57 522
122 547 193 56 158 -735 295 -2031 353 l-153 7 0 116 0 117 58 28 c277 135
519 410 616 701 62 184 75 443 30 597 -4 13 21 29 109 72 63 30 152 80 197
111 l83 56 107 -35 c116 -39 130 -41 130 -26 0 6 -8 10 -17 10 -19 0 -181 54
-190 63 -2 3 12 29 32 58 44 64 44 102 2 133 -26 19 -42 21 -170 21 l-142 0
-43 85 c-61 122 -75 200 -69 390 6 170 21 251 82 440 122 379 402 886 735
1335 l82 110 -6 77 c-12 170 -83 412 -163 558 -204 374 -553 590 -1086 671
-115 18 -189 22 -389 23 l-248 1 0 122 0 123 -180 0 -180 0 0 130 0 130 180 0
180 0 0 660 0 660 -1587 2 -1586 3 557 650 c307 358 673 785 814 949 141 165
261 305 265 313 9 15 -63 16 -202 2z m879 -2269 l0 -120 -135 0 -135 0 0 120
0 120 135 0 135 0 0 -120z m390 0 l0 -120 -135 0 -135 0 0 120 0 120 135 0
135 0 0 -120z m400 0 l0 -120 -135 0 -135 0 0 120 0 120 135 0 135 0 0 -120z
m-790 -1560 l0 -120 -135 0 -135 0 0 120 0 120 135 0 135 0 0 -120z m390 0 l0
-120 -135 0 -135 0 0 120 0 120 135 0 135 0 0 -120z m400 0 l0 -120 -135 0
-135 0 0 120 0 120 135 0 135 0 0 -120z m-790 -1560 l0 -120 -135 0 -135 0 0
120 0 120 135 0 135 0 0 -120z m390 0 l0 -120 -135 0 -135 0 0 120 0 120 135
0 135 0 0 -120z m400 0 l0 -120 -135 0 -135 0 0 120 0 120 135 0 135 0 0 -120z
m-119 -2046 c85 -25 148 -62 205 -118 268 -269 59 -695 -341 -696 -354 0 -579
347 -403 623 57 89 160 164 268 193 66 18 206 17 271 -2z m542 -994 c113 -33
96 -118 -43 -225 -69 -53 -186 -114 -280 -145 -201 -68 -449 -67 -661 1 -102
32 -259 114 -317 165 -84 74 -102 127 -56 163 53 41 84 44 539 51 521 8 766 5
818 -10z m-503 -972 l0 -48 -210 0 -210 0 0 48 0 47 210 0 210 0 0 -47z"/>
<path d="M5382 2910 c-48 -29 -74 -77 -68 -124 21 -173 299 -163 299 11 0 52
-24 90 -74 115 -46 24 -116 23 -157 -2z"/>
<path d="M10117 7499 c-101 -24 -167 -89 -187 -182 -7 -36 -9 -820 -8 -2597
l3 -2545 26 -50 c15 -29 42 -62 65 -78 83 -58 53 -57 1202 -57 703 0 1051 -3
1047 -10 -12 -20 -264 -164 -421 -241 -913 -446 -2302 -734 -3285 -681 -218
12 -399 32 -522 58 -79 16 -121 18 -97 5 14 -8 204 -43 300 -55 326 -41 831
-37 1250 10 1040 116 2113 452 2736 855 l91 59 506 0 c360 0 507 -3 507 -11 0
-6 -25 -152 -55 -325 -30 -173 -55 -319 -55 -323 0 -5 -33 -26 -72 -46 -40
-21 -102 -57 -139 -80 l-65 -42 -165 -7 c-1613 -68 -2827 -237 -3181 -443
-242 -141 -35 -294 567 -417 1981 -408 6830 -385 8535 39 253 63 402 126 466
198 30 33 35 44 30 70 -18 91 -178 172 -495 252 -557 140 -1612 253 -2796 301
-162 7 -172 8 -210 34 -48 32 -109 67 -190 109 l-60 31 -53 317 c-29 175 -52
324 -52 331 0 9 320 12 1568 12 1711 0 1631 -2 1716 57 23 16 51 49 65 78 l26
49 3 2555 c2 2813 7 2621 -58 2695 -17 18 -54 44 -82 57 l-53 24 -4185 2
c-2415 0 -4201 -3 -4223 -8z m4231 -115 c51 -36 5 -102 -53 -76 -32 15 -34 55
-3 76 12 9 25 16 28 16 3 0 16 -7 28 -16z m-160 -2928 l-131 -276 -185 0
c-171 0 -184 1 -178 18 4 9 145 315 314 678 l307 662 3 -403 2 -403 -132 -276z
m546 208 c119 -259 216 -474 216 -478 0 -3 -84 -5 -187 -4 l-187 3 -56 120
-55 120 -2 410 -2 410 28 -55 c16 -30 126 -267 245 -526z m-359 -2125 c131
-36 185 -181 102 -276 -106 -121 -303 -83 -348 67 -31 101 65 213 186 219 11
0 38 -4 60 -10z m4008 -1820 c21 -6 37 -16 37 -25 0 -22 -44 -34 -130 -34 -87
0 -130 12 -130 34 0 31 144 47 223 25z"/>
</g>
</svg>
