<?xml version="1.0" encoding="UTF-8" standalone="no"?>
<!DOCTYPE svg PUBLIC "-//W3C//DTD SVG 1.1//EN" "http://www.w3.org/Graphics/SVG/1.1/DTD/svg11.dtd">
<svg version="1.1" xmlns="http://www.w3.org/2000/svg" xmlns:xlink="http://www.w3.org/1999/xlink" preserveAspectRatio="xMidYMid meet" viewBox="0 0 1920 1080" width="1920" height="1080"><defs><path d="M501.79 0.19C300.06 0.19 136.52 147.51 136.52 329.23C136.52 510.96 300.06 658.27 501.79 658.27C703.52 658.27 867.06 510.96 867.06 329.23C867.06 147.51 703.52 0.19 501.79 0.19Z" id="b1vcGaDQgi"></path><path d="M0 79.19C0 198.91 83.37 295.79 186.41 295.79" id="ckHK8JAvN"></path><path d="M186.41 295.79C186.41 174.72 279.45 76.76 394.43 76.76" id="a2Wox45MQ9"></path><path d="M67.54 90.05C67.54 203.77 120.71 295.79 186.41 295.79" id="ab7WCAYQ7"></path><path d="M186.41 295.79C186.41 141.1 293.95 15.92 426.85 15.92" id="b1dJqpdNO0"></path><path d="M181.6 291.47C181.6 291.47 222.26 280.26 224.24 288.45C224.24 288.45 263.97 329.22 234.12 329.43C234.12 329.43 164.77 325.25 156.82 320.88C148.87 316.52 147.19 297.31 147.19 297.31C154.07 296.15 173.63 296.58 181.6 291.47Z" id="l1lncVWtRC"></path><path d="M157.35 318.03C151.3 314.71 148.88 302.78 148.08 297.28C147.52 297.3 147.19 297.31 147.19 297.31C147.19 297.31 148.87 316.52 156.82 320.88C164.77 325.25 204.27 329.65 234.12 329.43C242.74 329.37 245.71 326.61 245.55 322.52C244.35 324.99 241.07 326.53 234.65 326.58C204.81 326.8 165.3 322.39 157.35 318.03Z" id="c4AD9eIid"></path><path d="M661.27 655.95C661.27 677.66 517.7 695.25 340.59 695.25C163.48 695.25 19.91 677.66 19.91 655.95C19.91 634.25 163.48 616.66 340.59 616.66C517.7 616.66 661.27 634.25 661.27 655.95Z" id="am6LTEqk6"></path><path d="M609.83 655.95C609.83 674.18 489.29 688.95 340.59 688.95C191.9 688.95 71.35 674.18 71.35 655.95C71.35 637.73 191.9 622.96 340.59 622.96C489.29 622.96 609.83 637.73 609.83 655.95Z" id="fk3VPRc0X"></path><path d="M1920 1020.53C1920 1053.37 1702.72 1080 1434.69 1080C1166.66 1080 949.38 1053.37 949.38 1020.53C949.38 987.68 1166.66 961.05 1434.69 961.05C1702.72 961.05 1920 987.68 1920 1020.53Z" id="c1aAfPYF3s"></path><path d="M824.19 997.35C824.19 1017.08 693.67 1033.08 532.66 1033.08C371.65 1033.08 241.13 1017.08 241.13 997.35C241.13 977.62 371.65 961.63 532.66 961.63C693.67 961.63 824.19 977.62 824.19 997.35Z" id="b2146sBk1X"></path><path d="M793.32 967.23C947.66 1002.76 1244.34 920.89 1276.92 828.2" id="di7Zg6yM"></path><path d="M530.94 400.29C530.94 400.29 753.88 344.68 767.6 523.87C767.6 523.87 584.11 754.05 738.44 789.58" id="cPkDsy7PI"></path><path d="M315.56 830.18C315.56 830.18 382.56 813.47 386.69 867.33C386.69 867.33 331.54 936.51 377.92 947.18" id="ay1uttojw"></path><path d="M1335.39 870.28C1327.28 916.9 1322.78 942.79 1321.88 947.97C1321.88 947.97 1255.37 979.8 1302.14 980.74C1302.14 980.74 1569.2 980.74 1569.2 980.74C1569.2 980.74 1611.81 980.74 1544.26 947.04C1543.36 941.61 1538.86 914.46 1530.75 865.6L1335.39 870.28Z" id="doYhy3pjX"></path><path d="M1321.88 962.51C1322.78 957.33 1327.28 931.43 1335.39 884.82L1530.75 884.98C1538.86 930.94 1543.36 956.47 1544.26 961.58C1560.01 969.43 1569.77 975.46 1575.48 980.08C1584.15 978.3 1593.63 971.67 1544.26 947.04C1543.36 941.61 1538.86 914.46 1530.75 865.6L1335.39 870.28C1327.28 916.9 1322.78 942.79 1321.88 947.97C1321.88 947.97 1265.99 974.72 1292.73 979.89C1303.35 971.38 1316.05 965.99 1321.88 962.51Z" id="b3MlJUhl2R"></path><path d="M1841.17 328.75C1861.8 328.75 1872.12 338.04 1872.12 356.63C1872.12 654.55 1872.12 820.06 1872.12 853.17C1872.12 871.75 1861.8 881.04 1841.17 881.04C1350.2 881.04 1077.44 881.04 1022.89 881.04C1002.26 881.04 991.95 871.75 991.95 853.17C991.95 555.24 991.95 389.73 991.95 356.63C991.95 338.04 1002.26 328.75 1022.89 328.75C1513.86 328.75 1786.62 328.75 1841.17 328.75Z" id="e3CyjvkXJH"></path><path d="M1842.5 358.24C1842.5 358.24 1842.5 358.24 1842.5 358.24C1842.5 606.49 1842.5 744.41 1842.5 771.99C1842.5 771.99 1842.5 771.99 1842.5 771.99C1349.94 771.99 1076.29 771.99 1021.56 771.99C1021.56 771.99 1021.56 771.99 1021.56 771.99C1021.56 523.74 1021.56 385.82 1021.56 358.24C1021.56 358.24 1021.56 358.24 1021.56 358.24C1514.12 358.24 1787.77 358.24 1842.5 358.24Z" id="a1lhYaiaT0"></path><path d="M1432.03 340.45C1429.16 340.45 1426.83 342.55 1426.83 345.13C1426.83 347.72 1429.16 349.81 1432.03 349.81C1434.9 349.81 1437.23 347.72 1437.23 345.13C1437.23 342.55 1434.9 340.45 1432.03 340.45Z" id="j1Ef5BbuiG"></path><path d="M1872.12 804.75C1872.12 833.8 1872.12 849.94 1872.12 853.17C1872.12 868.56 1858.27 881.04 1841.18 881.04C1841.17 881.04 1841.17 881.04 1841.17 881.04C1759.34 881.04 1104.72 881.04 1022.89 881.04C1005.8 881.05 991.95 868.57 991.95 853.17C991.95 853.17 991.95 853.17 991.95 853.17C991.95 849.94 991.95 833.8 991.95 804.75L1872.12 804.75Z" id="bL6Ntpqt5"></path><path d="M1661.69 1040.65L1102.62 1040.65L1102.62 1033.16L1103.39 1031.29L1117.16 997.59L1650.25 997.59L1661.69 1031.29L1661.69 1031.29L1661.69 1040.65Z" id="h4z3KrxRER"></path><path d="M1863.28 1034.09C1832.11 1048.14 1768.72 1030.35 1768.72 1030.35C1768.72 1030.35 1719.88 1022.86 1719.88 1003.2C1721.25 1002.36 1722.68 1001.59 1724.16 1000.91C1737.27 994.66 1780.72 979.25 1857.78 1001.56C1863.46 1003.17 1868.53 1006.16 1872.43 1010.21C1875.55 1013.5 1878 1017.68 1876.83 1022.12C1875.81 1026.04 1871.97 1030.18 1863.28 1034.09Z" id="f16Ol5O0A"></path><path d="M1769.76 1014.44C1752.15 1003.43 1736.16 1000.7 1724.16 1000.91C1737.27 994.66 1780.72 979.25 1857.78 1001.56C1863.46 1003.17 1868.53 1006.16 1872.43 1010.21C1875.55 1013.5 1878 1017.68 1876.83 1022.12C1838.68 1035.29 1804.66 1036.28 1769.76 1014.44Z" id="b2yuHGms9b"></path><path d="M1842.5 1010.69C1842.5 1012.76 1836.45 1014.44 1828.99 1014.44C1821.53 1014.44 1815.48 1012.76 1815.48 1010.69C1815.48 1008.62 1821.53 1006.95 1828.99 1006.95C1836.45 1006.95 1842.5 1008.62 1842.5 1010.69Z" id="d2qQHxcmHY"></path><path d="M1432.03 825.35C1421.13 825.35 1412.29 833.31 1412.29 843.13C1412.29 852.95 1421.13 860.92 1432.03 860.92C1442.93 860.92 1451.77 852.95 1451.77 843.13C1451.77 833.31 1442.93 825.35 1432.03 825.35Z" id="bvIAHWTSM"></path><path d="M1661.69 1040.65L1102.62 1040.65L1102.62 1033.16L1103.39 1031.29L1661.69 1031.29L1661.69 1031.29L1661.69 1040.65Z" id="cAcD1bbpP"></path><path d="M542.95 245.81C542.95 245.81 542.95 245.81 542.95 245.81C542.95 470.12 542.95 594.73 542.95 619.65C542.95 619.65 542.95 619.65 542.95 619.65C328.93 619.65 210.03 619.65 186.25 619.65C186.25 619.65 186.25 619.65 186.25 619.65C186.25 395.35 186.25 270.73 186.25 245.81C186.25 245.81 186.25 245.81 186.25 245.81C400.27 245.81 519.17 245.81 542.95 245.81Z" id="d1ey7coNOn"></path><path d="M578.96 208.74C578.96 208.74 578.96 208.74 578.96 208.74C578.96 288.45 578.96 332.73 578.96 341.59C578.96 341.59 578.96 341.59 578.96 341.59C321.73 341.59 178.82 341.59 150.24 341.59C150.24 341.59 150.24 341.59 150.24 341.59C150.24 261.88 150.24 217.59 150.24 208.74C150.24 208.74 150.24 208.74 150.24 208.74C407.47 208.74 550.38 208.74 578.96 208.74Z" id="b7fmDFd845"></path><path d="M578.96 366.31C578.96 366.31 578.96 366.31 578.96 366.31C578.96 446.02 578.96 490.3 578.96 499.16C578.96 499.16 578.96 499.16 578.96 499.16C321.73 499.16 178.82 499.16 150.24 499.16C150.24 499.16 150.24 499.16 150.24 499.16C150.24 419.45 150.24 375.16 150.24 366.31C150.24 366.31 150.24 366.31 150.24 366.31C407.47 366.31 550.38 366.31 578.96 366.31Z" id="brZ1XhIcC"></path><path d="M578.96 523.87C578.96 523.87 578.96 523.87 578.96 523.87C578.96 603.59 578.96 647.87 578.96 656.73C578.96 656.73 578.96 656.73 578.96 656.73C321.73 656.73 178.82 656.73 150.24 656.73C150.24 656.73 150.24 656.73 150.24 656.73C150.24 577.02 150.24 532.73 150.24 523.87C150.24 523.87 150.24 523.87 150.24 523.87C407.47 523.87 550.38 523.87 578.96 523.87Z" id="l1pfjJXMli"></path><path d="M493.22 231.91C493.22 231.91 493.22 231.91 493.22 231.91C493.22 246.74 493.22 254.98 493.22 256.63C493.22 256.63 493.22 256.63 493.22 256.63C476.75 256.63 467.61 256.63 465.78 256.63C465.78 256.63 465.78 256.63 465.78 256.63C465.78 241.8 465.78 233.56 465.78 231.91C465.78 231.91 465.78 231.91 465.78 231.91C482.24 231.91 491.39 231.91 493.22 231.91Z" id="b57U0BeMjp"></path><path d="M532.66 231.91C532.66 231.91 532.66 231.91 532.66 231.91C532.66 246.74 532.66 254.98 532.66 256.63C532.66 256.63 532.66 256.63 532.66 256.63C516.2 256.63 507.05 256.63 505.22 256.63C505.22 256.63 505.22 256.63 505.22 256.63C505.22 241.8 505.22 233.56 505.22 231.91C505.22 231.91 505.22 231.91 505.22 231.91C521.68 231.91 530.83 231.91 532.66 231.91Z" id="dsPelNEXL"></path><path d="M572.1 231.91C572.1 231.91 572.1 231.91 572.1 231.91C572.1 246.74 572.1 254.98 572.1 256.63C572.1 256.63 572.1 256.63 572.1 256.63C555.64 256.63 546.49 256.63 544.66 256.63C544.66 256.63 544.66 256.63 544.66 256.63C544.66 241.8 544.66 233.56 544.66 231.91C544.66 231.91 544.66 231.91 544.66 231.91C561.13 231.91 570.27 231.91 572.1 231.91Z" id="e2fekH0W2"></path><path d="M493.22 387.93C493.22 387.93 493.22 387.93 493.22 387.93C493.22 402.76 493.22 411 493.22 412.65C493.22 412.65 493.22 412.65 493.22 412.65C476.75 412.65 467.61 412.65 465.78 412.65C465.78 412.65 465.78 412.65 465.78 412.65C465.78 397.82 465.78 389.58 465.78 387.93C465.78 387.93 465.78 387.93 465.78 387.93C482.24 387.93 491.39 387.93 493.22 387.93Z" id="c1zYLNERNt"></path><path d="M532.66 387.93C532.66 387.93 532.66 387.93 532.66 387.93C532.66 402.76 532.66 411 532.66 412.65C532.66 412.65 532.66 412.65 532.66 412.65C516.2 412.65 507.05 412.65 505.22 412.65C505.22 412.65 505.22 412.65 505.22 412.65C505.22 397.82 505.22 389.58 505.22 387.93C505.22 387.93 505.22 387.93 505.22 387.93C521.68 387.93 530.83 387.93 532.66 387.93Z" id="lcrEcrhKV"></path><path d="M572.1 387.93C572.1 387.93 572.1 387.93 572.1 387.93C572.1 402.76 572.1 411 572.1 412.65C572.1 412.65 572.1 412.65 572.1 412.65C555.64 412.65 546.49 412.65 544.66 412.65C544.66 412.65 544.66 412.65 544.66 412.65C544.66 397.82 544.66 389.58 544.66 387.93C544.66 387.93 544.66 387.93 544.66 387.93C561.13 387.93 570.27 387.93 572.1 387.93Z" id="d6Ok9RmYu1"></path><path d="M493.22 543.96C493.22 543.96 493.22 543.96 493.22 543.96C493.22 558.79 493.22 567.03 493.22 568.67C493.22 568.67 493.22 568.67 493.22 568.67C476.75 568.67 467.61 568.67 465.78 568.67C465.78 568.67 465.78 568.67 465.78 568.67C465.78 553.84 465.78 545.6 465.78 543.96C465.78 543.96 465.78 543.96 465.78 543.96C482.24 543.96 491.39 543.96 493.22 543.96Z" id="c47mOapF6P"></path><path d="M532.66 543.96C532.66 543.96 532.66 543.96 532.66 543.96C532.66 558.79 532.66 567.03 532.66 568.67C532.66 568.67 532.66 568.67 532.66 568.67C516.2 568.67 507.05 568.67 505.22 568.67C505.22 568.67 505.22 568.67 505.22 568.67C505.22 553.84 505.22 545.6 505.22 543.96C505.22 543.96 505.22 543.96 505.22 543.96C521.68 543.96 530.83 543.96 532.66 543.96Z" id="ii1WFzJQN"></path><path d="M572.1 543.96C572.1 543.96 572.1 543.96 572.1 543.96C572.1 558.79 572.1 567.03 572.1 568.67C572.1 568.67 572.1 568.67 572.1 568.67C555.64 568.67 546.49 568.67 544.66 568.67C544.66 568.67 544.66 568.67 544.66 568.67C544.66 553.84 544.66 545.6 544.66 543.96C544.66 543.96 544.66 543.96 544.66 543.96C561.13 543.96 570.27 543.96 572.1 543.96Z" id="c3wJBxWg2n"></path><path d="M542.95 709.25C468.13 709.25 407.47 763.89 407.47 831.29C407.47 898.69 468.13 953.33 542.95 953.33C617.77 953.33 678.42 898.69 678.42 831.29C678.42 763.89 617.77 709.25 542.95 709.25Z" id="a2k0zOp6P"></path><path d="M522.37 927.07C522.37 927.07 522.37 927.07 522.37 927.07C522.37 966.92 522.37 989.06 522.37 993.49C522.37 993.49 522.37 993.49 522.37 993.49C497.68 993.49 483.96 993.49 481.21 993.49C481.21 993.49 481.21 993.49 481.21 993.49C481.21 953.64 481.21 931.49 481.21 927.07C481.21 927.07 481.21 927.07 481.21 927.07C505.91 927.07 519.63 927.07 522.37 927.07Z" id="ahSM73iRz"></path><path d="M604.68 927.07C604.68 927.07 604.68 927.07 604.68 927.07C604.68 966.92 604.68 989.06 604.68 993.49C604.68 993.49 604.68 993.49 604.68 993.49C579.99 993.49 566.27 993.49 563.53 993.49C563.53 993.49 563.53 993.49 563.53 993.49C563.53 953.64 563.53 931.49 563.53 927.07C563.53 927.07 563.53 927.07 563.53 927.07C588.22 927.07 601.94 927.07 604.68 927.07Z" id="i3lJXpTan2"></path><path d="M549.81 994.26C549.81 1000.66 534.45 1005.85 515.51 1005.85C496.57 1005.85 481.21 1000.66 481.21 994.26C481.21 987.87 496.57 982.68 515.51 982.68C534.45 982.68 549.81 987.87 549.81 994.26Z" id="a9FlkjWBNq"></path><path d="M632.12 992.72C632.12 999.12 616.77 1004.31 597.82 1004.31C578.88 1004.31 563.53 999.12 563.53 992.72C563.53 986.32 578.88 981.13 597.82 981.13C616.77 981.13 632.12 986.32 632.12 992.72Z" id="byqOJ83OD"></path><path d="M546.38 758.68C520.81 758.68 500.08 777.36 500.08 800.39C500.08 823.43 520.81 842.1 546.38 842.1C571.95 842.1 592.68 823.43 592.68 800.39C592.68 777.36 571.95 758.68 546.38 758.68Z" id="c1lCkXXlU"></path><path d="M546.38 786.49C537.85 786.49 530.94 792.71 530.94 800.39C530.94 808.07 537.85 814.3 546.38 814.3C554.9 814.3 561.81 808.07 561.81 800.39C561.81 792.71 554.9 786.49 546.38 786.49Z" id="b2dNe4XcJE"></path><path d="M489.63 618.2C543.71 607.32 596.41 634.28 607.35 678.41C618.29 722.54 582.45 738.82 528.38 749.69C474.31 760.57 422.47 761.93 411.53 717.8C400.59 673.67 435.56 629.07 489.63 618.2Z" id="je83eZvir"></path><path d="M723.92 765.33C728.54 775.05 704.4 793.69 670.01 806.95C635.62 820.21 603.99 823.07 599.37 813.35C594.75 803.62 618.88 784.99 653.28 771.73C687.67 758.47 719.3 755.6 723.92 765.33Z" id="a25zehR0BR"></path><path d="M470.11 847.2C474.74 856.93 450.6 875.56 416.21 888.82C381.82 902.08 350.19 904.95 345.57 895.22C340.95 885.5 365.08 866.86 399.47 853.6C433.87 840.34 465.49 837.48 470.11 847.2Z" id="a1AekIZqdm"></path><path d="M549.81 902.35C511.92 902.35 476.07 880.31 476.07 868.36C476.07 856.42 511.92 859.09 549.81 859.09C587.69 859.09 621.83 854.87 621.83 866.82C621.83 878.76 587.69 902.35 549.81 902.35Z" id="e5cf1Nvlsn"></path><path d="M1455.51 662.4L1496.07 662.4L1432.35 523.87L1432.35 611.6L1455.51 662.4Z" id="b4AtMhc0ps"></path><linearGradient id="gradientbuR6AyYWC" gradientUnits="userSpaceOnUse" x1="1451.59" y1="552.41" x2="1421.67" y2="552.41"><stop style="stop-color: #4079fa;stop-opacity: 1" offset="0%"></stop><stop style="stop-color: #1b2d56;stop-opacity: 1" offset="100%"></stop><stop style="stop-color: #010000;stop-opacity: 1" offset="100%"></stop></linearGradient><path d="M1367.99 662.4L1432.35 523.87L1432.35 610.65L1408.55 662.4L1367.99 662.4Z" id="a3DPPdxR5A"></path><path d="M1405.12 665.06L1432.46 607.89L1458.19 665.06L1405.12 665.06Z" id="a21Dtg8oC"></path><path d="M1405.12 665.06L1432.46 607.89L1458.19 665.06L1405.12 665.06Z" id="bF7R3pAMX"></path></defs><g><g><g><use xlink:href="#b1vcGaDQgi" opacity="1" fill="#f2f2f2" fill-opacity="1"></use><g><use xlink:href="#b1vcGaDQgi" opacity="1" fill-opacity="0" stroke="#000000" stroke-width="1" stroke-opacity="0"></use></g></g><g><use xlink:href="#ckHK8JAvN" opacity="1" fill="#2f2e41" fill-opacity="1"></use><g><use xlink:href="#ckHK8JAvN" opacity="1" fill-opacity="0" stroke="#000000" stroke-width="1" stroke-opacity="0"></use></g></g><g><use xlink:href="#a2Wox45MQ9" opacity="1" fill="#6c63ff" fill-opacity="1"></use><g><use xlink:href="#a2Wox45MQ9" opacity="1" fill-opacity="0" stroke="#000000" stroke-width="1" stroke-opacity="0"></use></g></g><g><use xlink:href="#ab7WCAYQ7" opacity="1" fill="#6c63ff" fill-opacity="1"></use><g><use xlink:href="#ab7WCAYQ7" opacity="1" fill-opacity="0" stroke="#000000" stroke-width="1" stroke-opacity="0"></use></g></g><g><use xlink:href="#b1dJqpdNO0" opacity="1" fill="#2f2e41" fill-opacity="1"></use><g><use xlink:href="#b1dJqpdNO0" opacity="1" fill-opacity="0" stroke="#000000" stroke-width="1" stroke-opacity="0"></use></g></g><g><use xlink:href="#l1lncVWtRC" opacity="1" fill="#a8a8a8" fill-opacity="1"></use><g><use xlink:href="#l1lncVWtRC" opacity="1" fill-opacity="0" stroke="#000000" stroke-width="1" stroke-opacity="0"></use></g></g><g><use xlink:href="#c4AD9eIid" opacity="1" fill="#000000" fill-opacity="1"></use><g><use xlink:href="#c4AD9eIid" opacity="1" fill-opacity="0" stroke="#000000" stroke-width="1" stroke-opacity="0"></use></g></g><g><use xlink:href="#am6LTEqk6" opacity="1" fill="#3f3d56" fill-opacity="1"></use><g><use xlink:href="#am6LTEqk6" opacity="1" fill-opacity="0" stroke="#000000" stroke-width="1" stroke-opacity="0"></use></g></g><g><use xlink:href="#fk3VPRc0X" opacity="1" fill="#000000" fill-opacity="1"></use><g><use xlink:href="#fk3VPRc0X" opacity="1" fill-opacity="0" stroke="#000000" stroke-width="1" stroke-opacity="0"></use></g></g><g><use xlink:href="#c1aAfPYF3s" opacity="1" fill="#3f3d56" fill-opacity="1"></use><g><use xlink:href="#c1aAfPYF3s" opacity="1" fill-opacity="0" stroke="#000000" stroke-width="1" stroke-opacity="0"></use></g></g><g><use xlink:href="#b2146sBk1X" opacity="1" fill="#3f3d56" fill-opacity="1"></use><g><use xlink:href="#b2146sBk1X" opacity="1" fill-opacity="0" stroke="#000000" stroke-width="1" stroke-opacity="0"></use></g></g><g><use xlink:href="#di7Zg6yM" opacity="1" fill="#000000" fill-opacity="0"></use><g><use xlink:href="#di7Zg6yM" opacity="1" fill-opacity="0" stroke="#2f2e41" stroke-width="2" stroke-opacity="1"></use></g></g><g><use xlink:href="#cPkDsy7PI" opacity="1" fill="#000000" fill-opacity="0"></use><g><use xlink:href="#cPkDsy7PI" opacity="1" fill-opacity="0" stroke="#2f2e41" stroke-width="2" stroke-opacity="1"></use></g></g><g><use xlink:href="#ay1uttojw" opacity="1" fill="#000000" fill-opacity="0"></use><g><use xlink:href="#ay1uttojw" opacity="1" fill-opacity="0" stroke="#2f2e41" stroke-width="2" stroke-opacity="1"></use></g></g><g><use xlink:href="#doYhy3pjX" opacity="1" fill="#2f2e41" fill-opacity="1"></use><g><use xlink:href="#doYhy3pjX" opacity="1" fill-opacity="0" stroke="#000000" stroke-width="1" stroke-opacity="0"></use></g></g><g><use xlink:href="#b3MlJUhl2R" opacity="1" fill="#000000" fill-opacity="1"></use><g><use xlink:href="#b3MlJUhl2R" opacity="1" fill-opacity="0" stroke="#000000" stroke-width="1" stroke-opacity="0"></use></g></g><g><use xlink:href="#e3CyjvkXJH" opacity="1" fill="#2f2e41" fill-opacity="1"></use><g><use xlink:href="#e3CyjvkXJH" opacity="1" fill-opacity="0" stroke="#000000" stroke-width="1" stroke-opacity="0"></use></g></g><g><use xlink:href="#a1lhYaiaT0" opacity="1" fill="#3f3d56" fill-opacity="1"></use><g><use xlink:href="#a1lhYaiaT0" opacity="1" fill-opacity="0" stroke="#000000" stroke-width="1" stroke-opacity="0"></use></g></g><g><use xlink:href="#j1Ef5BbuiG" opacity="1" fill="#f2f2f2" fill-opacity="1"></use><g><use xlink:href="#j1Ef5BbuiG" opacity="1" fill-opacity="0" stroke="#000000" stroke-width="1" stroke-opacity="0"></use></g></g><g><use xlink:href="#bL6Ntpqt5" opacity="1" fill="#2f2e41" fill-opacity="1"></use><g><use xlink:href="#bL6Ntpqt5" opacity="1" fill-opacity="0" stroke="#000000" stroke-width="1" stroke-opacity="0"></use></g></g><g><use xlink:href="#h4z3KrxRER" opacity="1" fill="#2f2e41" fill-opacity="1"></use><g><use xlink:href="#h4z3KrxRER" opacity="1" fill-opacity="0" stroke="#000000" stroke-width="1" stroke-opacity="0"></use></g></g><g><use xlink:href="#f16Ol5O0A" opacity="1" fill="#2f2e41" fill-opacity="1"></use><g><use xlink:href="#f16Ol5O0A" opacity="1" fill-opacity="0" stroke="#000000" stroke-width="1" stroke-opacity="0"></use></g></g><g><use xlink:href="#b2yuHGms9b" opacity="1" fill="#000000" fill-opacity="1"></use><g><use xlink:href="#b2yuHGms9b" opacity="1" fill-opacity="0" stroke="#000000" stroke-width="1" stroke-opacity="0"></use></g></g><g><use xlink:href="#d2qQHxcmHY" opacity="1" fill="#f2f2f2" fill-opacity="1"></use><g><use xlink:href="#d2qQHxcmHY" opacity="1" fill-opacity="0" stroke="#000000" stroke-width="1" stroke-opacity="0"></use></g></g><g><use xlink:href="#bvIAHWTSM" opacity="1" fill="#f2f2f2" fill-opacity="1"></use><g><use xlink:href="#bvIAHWTSM" opacity="1" fill-opacity="0" stroke="#000000" stroke-width="1" stroke-opacity="0"></use></g></g><g><use xlink:href="#cAcD1bbpP" opacity="1" fill="#000000" fill-opacity="1"></use><g><use xlink:href="#cAcD1bbpP" opacity="1" fill-opacity="0" stroke="#000000" stroke-width="1" stroke-opacity="0"></use></g></g><g><use xlink:href="#d1ey7coNOn" opacity="1" fill="#2f2e41" fill-opacity="1"></use><g><use xlink:href="#d1ey7coNOn" opacity="1" fill-opacity="0" stroke="#000000" stroke-width="1" stroke-opacity="0"></use></g></g><g><use xlink:href="#b7fmDFd845" opacity="1" fill="#3f3d56" fill-opacity="1"></use><g><use xlink:href="#b7fmDFd845" opacity="1" fill-opacity="0" stroke="#000000" stroke-width="1" stroke-opacity="0"></use></g></g><g><use xlink:href="#brZ1XhIcC" opacity="1" fill="#3f3d56" fill-opacity="1"></use><g><use xlink:href="#brZ1XhIcC" opacity="1" fill-opacity="0" stroke="#000000" stroke-width="1" stroke-opacity="0"></use></g></g><g><use xlink:href="#l1pfjJXMli" opacity="1" fill="#3f3d56" fill-opacity="1"></use><g><use xlink:href="#l1pfjJXMli" opacity="1" fill-opacity="0" stroke="#000000" stroke-width="1" stroke-opacity="0"></use></g></g><g><use xlink:href="#b57U0BeMjp" opacity="1" fill="#6c63ff" fill-opacity="1"></use><g><use xlink:href="#b57U0BeMjp" opacity="1" fill-opacity="0" stroke="#000000" stroke-width="1" stroke-opacity="0"></use></g></g><g><use xlink:href="#dsPelNEXL" opacity="1" fill="#6c63ff" fill-opacity="1"></use><g><use xlink:href="#dsPelNEXL" opacity="1" fill-opacity="0" stroke="#000000" stroke-width="1" stroke-opacity="0"></use></g></g><g><use xlink:href="#e2fekH0W2" opacity="1" fill="#6c63ff" fill-opacity="1"></use><g><use xlink:href="#e2fekH0W2" opacity="1" fill-opacity="0" stroke="#000000" stroke-width="1" stroke-opacity="0"></use></g></g><g><use xlink:href="#c1zYLNERNt" opacity="1" fill="#6c63ff" fill-opacity="1"></use><g><use xlink:href="#c1zYLNERNt" opacity="1" fill-opacity="0" stroke="#000000" stroke-width="1" stroke-opacity="0"></use></g></g><g><use xlink:href="#lcrEcrhKV" opacity="1" fill="#6c63ff" fill-opacity="1"></use><g><use xlink:href="#lcrEcrhKV" opacity="1" fill-opacity="0" stroke="#000000" stroke-width="1" stroke-opacity="0"></use></g></g><g><use xlink:href="#d6Ok9RmYu1" opacity="1" fill="#6c63ff" fill-opacity="1"></use><g><use xlink:href="#d6Ok9RmYu1" opacity="1" fill-opacity="0" stroke="#000000" stroke-width="1" stroke-opacity="0"></use></g></g><g><use xlink:href="#c47mOapF6P" opacity="1" fill="#6c63ff" fill-opacity="1"></use><g><use xlink:href="#c47mOapF6P" opacity="1" fill-opacity="0" stroke="#000000" stroke-width="1" stroke-opacity="0"></use></g></g><g><use xlink:href="#ii1WFzJQN" opacity="1" fill="#6c63ff" fill-opacity="1"></use><g><use xlink:href="#ii1WFzJQN" opacity="1" fill-opacity="0" stroke="#000000" stroke-width="1" stroke-opacity="0"></use></g></g><g><use xlink:href="#c3wJBxWg2n" opacity="1" fill="#6c63ff" fill-opacity="1"></use><g><use xlink:href="#c3wJBxWg2n" opacity="1" fill-opacity="0" stroke="#000000" stroke-width="1" stroke-opacity="0"></use></g></g><g><use xlink:href="#a2k0zOp6P" opacity="1" fill="#2f2e41" fill-opacity="1"></use><g><use xlink:href="#a2k0zOp6P" opacity="1" fill-opacity="0" stroke="#000000" stroke-width="1" stroke-opacity="0"></use></g></g><g><use xlink:href="#ahSM73iRz" opacity="1" fill="#2f2e41" fill-opacity="1"></use><g><use xlink:href="#ahSM73iRz" opacity="1" fill-opacity="0" stroke="#000000" stroke-width="1" stroke-opacity="0"></use></g></g><g><use xlink:href="#i3lJXpTan2" opacity="1" fill="#2f2e41" fill-opacity="1"></use><g><use xlink:href="#i3lJXpTan2" opacity="1" fill-opacity="0" stroke="#000000" stroke-width="1" stroke-opacity="0"></use></g></g><g><use xlink:href="#a9FlkjWBNq" opacity="1" fill="#2f2e41" fill-opacity="1"></use><g><use xlink:href="#a9FlkjWBNq" opacity="1" fill-opacity="0" stroke="#000000" stroke-width="1" stroke-opacity="0"></use></g></g><g><use xlink:href="#byqOJ83OD" opacity="1" fill="#2f2e41" fill-opacity="1"></use><g><use xlink:href="#byqOJ83OD" opacity="1" fill-opacity="0" stroke="#000000" stroke-width="1" stroke-opacity="0"></use></g></g><g><use xlink:href="#c1lCkXXlU" opacity="1" fill="#ffffff" fill-opacity="1"></use><g><use xlink:href="#c1lCkXXlU" opacity="1" fill-opacity="0" stroke="#000000" stroke-width="1" stroke-opacity="0"></use></g></g><g><use xlink:href="#b2dNe4XcJE" opacity="1" fill="#3f3d56" fill-opacity="1"></use><g><use xlink:href="#b2dNe4XcJE" opacity="1" fill-opacity="0" stroke="#000000" stroke-width="1" stroke-opacity="0"></use></g></g><g><use xlink:href="#je83eZvir" opacity="1" fill="#6c63ff" fill-opacity="1"></use><g><use xlink:href="#je83eZvir" opacity="1" fill-opacity="0" stroke="#000000" stroke-width="1" stroke-opacity="0"></use></g></g><g><use xlink:href="#a25zehR0BR" opacity="1" fill="#2f2e41" fill-opacity="1"></use><g><use xlink:href="#a25zehR0BR" opacity="1" fill-opacity="0" stroke="#000000" stroke-width="1" stroke-opacity="0"></use></g></g><g><use xlink:href="#a1AekIZqdm" opacity="1" fill="#2f2e41" fill-opacity="1"></use><g><use xlink:href="#a1AekIZqdm" opacity="1" fill-opacity="0" stroke="#000000" stroke-width="1" stroke-opacity="0"></use></g></g><g><use xlink:href="#e5cf1Nvlsn" opacity="1" fill="#ffffff" fill-opacity="1"></use><g><use xlink:href="#e5cf1Nvlsn" opacity="1" fill-opacity="0" stroke="#000000" stroke-width="1" stroke-opacity="0"></use></g></g><g><use xlink:href="#b4AtMhc0ps" opacity="1" fill="url(#gradientbuR6AyYWC)"></use><g><use xlink:href="#b4AtMhc0ps" opacity="1" fill-opacity="0" stroke="#000000" stroke-width="1" stroke-opacity="0"></use></g></g><g><use xlink:href="#a3DPPdxR5A" opacity="1" fill="#4079fa" fill-opacity="1"></use><g><use xlink:href="#a3DPPdxR5A" opacity="1" fill-opacity="0" stroke="#000000" stroke-width="1" stroke-opacity="0"></use></g></g><g><use xlink:href="#a21Dtg8oC" opacity="1" fill="#232323" fill-opacity="1"></use><g><use xlink:href="#a21Dtg8oC" opacity="1" fill-opacity="0" stroke="#000000" stroke-width="1" stroke-opacity="0"></use></g></g><g><use xlink:href="#bF7R3pAMX" opacity="1" fill="#000000" fill-opacity="0"></use><g><use xlink:href="#bF7R3pAMX" opacity="1" fill-opacity="0" stroke="#000000" stroke-width="1" stroke-opacity="1"></use></g></g></g></g></svg>